<mxfile host="app.diagrams.net" modified="2023-08-06T08:38:01.164Z" agent="Mozilla/5.0 (Windows NT 10.0; Win64; x64) AppleWebKit/537.36 (KHTML, like Gecko) Chrome/115.0.0.0 Safari/537.36" version="21.6.6" etag="jiEq76abhz_YonO3EqBY" type="github">
  <diagram name="第 1 页" id="vXs4aYnu55Jb8QoqiG_9">
    <mxGraphModel>
      <root>
        <mxCell id="0" />
        <mxCell id="1" parent="0" />
      </root>
    </mxGraphModel>
  </diagram>
</mxfile>
